<svg xmlns="http://www.w3.org/2000/svg" viewBox="0 0 295.14 100"><path fill="none" stroke="#0a0a0a" stroke-linecap="round" stroke-width="6.4" d="M3.2 18.8v24m0 14.4v24m22.4-62.4V38c-9.6 4.8-9.6 19.2 0 24v19.2"/><path fill="#0a0a0a" d="M88.18 74.424q-4.27 0-7.62-2.07-3.35-2.08-5.24-5.86t-1.89-8.87q0-5.08 1.89-8.83t5.24-5.86 7.62-2.11q4.34 0 7.69 2.11t5.24 5.86 1.89 8.83q0 5.09-1.89 8.87t-5.21 5.86q-3.31 2.07-7.72 2.07m0-4.15q3.1 0 5.34-1.55 2.23-1.55 3.44-4.4t1.21-6.7q0-3.84-1.21-6.69-1.21-2.86-3.44-4.41-2.24-1.55-5.34-1.55-3.03 0-5.27 1.55-2.23 1.55-3.44 4.41-1.21 2.85-1.21 6.69 0 3.85 1.21 6.7t3.44 4.4q2.24 1.55 5.27 1.55m28.03 3.41h-4.65v-31q1.92-.5 5.02-1.12t7.44-.62q5.02 0 7.81 1.86t3.94 5.18 1.15 7.72v17.98h-4.65v-16.68q0-4.4-.81-7-.81-2.61-2.73-3.79-1.92-1.17-5.33-1.17-2.6 0-4.59.31-1.98.31-2.6.49zm44.27.68q-5.09 0-8.5-2.08-3.41-2.07-5.14-5.85-1.74-3.79-1.74-8.75 0-5.02 1.8-8.8t5.18-5.92q3.37-2.14 8.02-2.14 2.55 0 4.84.43 2.29.44 3.6 1.12l-1.18 3.91q-1.24-.56-2.79-.93-1.55-.38-4.09-.38-5.15 0-7.85 3.35-2.69 3.35-2.69 9.36 0 3.72 1.11 6.54 1.12 2.83 3.6 4.41t6.57 1.58q2.42 0 4.25-.56t2.69-.99l.93 3.97q-1.17.62-3.59 1.17-2.42.56-5.02.56m19.96-.68h-4.65v-47.31l4.65-.8v16.8q1.8-.68 3.81-1.05 2.02-.38 3.94-.38 5.08 0 7.87 1.86t3.94 5.18 1.15 7.72v17.98h-4.65v-16.68q0-4.4-.81-7-.8-2.61-2.73-3.79-1.92-1.17-5.39-1.17-1.3 0-2.82.28-1.52.27-2.7.58t-1.61.5zm40.49.68q-3.48 0-6.2-.99-2.73-.99-4.28-3.22-1.55-2.24-1.55-5.89 0-3.54 1.73-5.74 1.74-2.2 4.81-3.19t6.91-.99q1.74 0 3.66.31t2.42.55v-1.86q0-2.1-.53-4.06-.53-1.95-2.14-3.19t-4.9-1.24q-3.41 0-5.2.5-1.8.49-2.67.8l-.62-3.97q1.12-.49 3.41-.93 2.29-.43 5.39-.43 4.41 0 6.98 1.55t3.72 4.25q1.15 2.69 1.15 6.17v20.15q-1.31.31-4.65.86-3.35.56-7.44.56m.68-3.97q2.17 0 3.9-.15 1.74-.16 2.92-.4v-10.79q-.62-.31-2.11-.62t-3.84-.31q-1.99 0-4.03.43-2.05.44-3.44 1.74-1.4 1.3-1.4 3.9 0 3.48 2.17 4.84t5.83 1.36m31.93 3.97q-4.09 0-6.45-1.42-2.36-1.43-3.32-4.28t-.96-7.13v-29.27l4.65-.8v10.1h12.59v3.91h-12.59v16.43q0 3.41.78 5.21.77 1.8 2.23 2.45t3.44.65q2.36 0 3.94-.56t2.51-.99l.99 3.78q-.93.56-3.07 1.24t-4.74.68m26.78.06q-4.28 0-7.62-2.07-3.35-2.08-5.24-5.86t-1.89-8.87q0-5.08 1.89-8.83t5.24-5.86q3.34-2.11 7.62-2.11 4.34 0 7.69 2.11t5.24 5.86 1.89 8.83q0 5.09-1.89 8.87t-5.21 5.86q-3.32 2.07-7.72 2.07m0-4.15q3.1 0 5.33-1.55 2.24-1.55 3.44-4.4 1.21-2.85 1.21-6.7 0-3.84-1.21-6.69-1.2-2.86-3.44-4.41-2.23-1.55-5.33-1.55-3.04 0-5.27 1.55t-3.44 4.41q-1.21 2.85-1.21 6.69 0 3.85 1.21 6.7t3.44 4.4 5.27 1.55"/></svg>